HIERARCHY
ROOT Hips
{
	OFFSET -21.947001 39.810207 44.525993
	CHANNELS 6 Xposition Yposition Zposition Zrotation Xrotation Yrotation
	JOINT Chest
	{
		OFFSET -0.201599 0.334099 6.453201
		CHANNELS 3 Zrotation Xrotation Yrotation
		JOINT Chest2
		{
			OFFSET 0.000000 0.000000 3.568001
			CHANNELS 3 Zrotation Xrotation Yrotation
			JOINT Neck
			{
				OFFSET 0.000000 0.000000 8.296402
				CHANNELS 3 Zrotation Xrotation Yrotation
				JOINT Head
				{
					OFFSET 0.000000 0.000000 2.173904
					CHANNELS 3 Zrotation Xrotation Yrotation
					End Site
					{
						OFFSET 0.000000 0.000000 7.891998
					}
				}
			}
			JOINT LeftCollar
			{
				OFFSET 1.927601 0.221401 6.049000
				CHANNELS 3 Zrotation Xrotation Yrotation
				JOINT LeftShoulder
				{
					OFFSET 4.959700 0.000000 0.000000
					CHANNELS 3 Zrotation Xrotation Yrotation
					JOINT LeftElbow
					{
						OFFSET 0.000000 0.000000 -8.654202
						CHANNELS 3 Zrotation Xrotation Yrotation
						JOINT LeftWrist
						{
							OFFSET 0.000000 0.000000 -13.864101
							CHANNELS 3 Zrotation Xrotation Yrotation
							End Site
							{
								OFFSET 0.000000 0.000000 -2.173901
							}
						}
					}
				}
			}
			JOINT RightCollar
			{
				OFFSET -3.155701 -0.764999 6.687801
				CHANNELS 3 Zrotation Xrotation Yrotation
				JOINT RightShoulder
				{
					OFFSET -3.592899 0.000000 0.000000
					CHANNELS 3 Zrotation Xrotation Yrotation
					JOINT RightElbow
					{
						OFFSET 0.000000 0.000000 -10.352398
						CHANNELS 3 Zrotation Xrotation Yrotation
						JOINT RightWrist
						{
							OFFSET 0.000000 0.000000 -12.750301
							CHANNELS 3 Zrotation Xrotation Yrotation
							End Site
							{
								OFFSET 0.000000 0.000000 -2.173901
							}
						}
					}
				}
			}
		}
	}
	JOINT LeftHip
	{
		OFFSET 2.460600 -0.518101 -2.735500
		CHANNELS 3 Zrotation Xrotation Yrotation
		JOINT LeftKnee
		{
			OFFSET 0.000000 -0.000008 -17.005899
			CHANNELS 3 Zrotation Xrotation Yrotation
			JOINT LeftAnkle
			{
				OFFSET 0.000000 0.000000 -19.194399
				CHANNELS 3 Zrotation Xrotation Yrotation
				End Site
				{
					OFFSET 0.000000 -8.134600 0.000000
				}
			}
		}
	}
	JOINT RightHip
	{
		OFFSET -3.115499 -0.679600 -2.320301
		CHANNELS 3 Zrotation Xrotation Yrotation
		JOINT RightKnee
		{
			OFFSET 0.000000 -0.000008 -17.680401
			CHANNELS 3 Zrotation Xrotation Yrotation
			JOINT RightAnkle
			{
				OFFSET 0.000000 0.000000 -16.993795
				CHANNELS 3 Zrotation Xrotation Yrotation
				End Site
				{
					OFFSET 0.000000 -8.842300 0.000000
				}
			}
		}
	}
}
MOTION
Frames: 17
Frame Time: 0.020000
-30.250002 28.957609 39.303192 59.671729 27.044566 -0.559483 -7.065134 19.159832 7.804655 0.233926 -10.064157 -1.208535 0.642915 26.325695 5.422994 1.644527 3.273973 2.264228 -23.152883 12.029701 1.006981 -34.786071 0.616869 -116.507386 1.888152 -55.291744 22.861968 192.346323 -138.580331 223.511985 39.794711 15.382588 1.045652 36.273796 6.111007 110.062611 -126.826409 -138.525566 -143.308365 -246.869702 -5.330066 50.499202 73.864698 -36.475242 55.574599 -119.374877 34.280033 58.127765 49.397417 10.684224 22.164176 -62.347954 -49.328760 -52.936760 133.379333 8.878350 -65.598598 -78.816620 18.427343 -43.132044 
-30.061405 28.884211 39.649590 58.973335 25.874363 -0.417697 -6.974944 18.806362 8.020520 0.236542 -9.988756 -1.203643 0.924533 27.099399 5.263811 1.762434 3.637386 1.955204 -22.790135 11.954062 0.291394 -33.554899 0.532235 -118.040846 4.566266 -55.797728 24.331518 194.943953 -138.056414 225.517533 39.653141 14.966647 1.246962 35.522185 6.423737 111.563723 -129.916154 -139.188846 -145.249491 -247.328636 6.730920 65.295946 70.430445 -37.042575 51.634523 -114.613416 35.985337 55.510703 48.141786 10.911002 20.293499 -58.276513 -48.904960 -48.863047 132.332347 9.325286 -64.314147 -78.469769 18.137781 -43.585712 
-29.865204 28.794514 40.004189 58.331509 24.713665 -0.312774 -7.175106 18.345866 8.277813 0.453681 -9.960696 -1.185560 0.937006 27.883528 5.473953 2.119051 3.907908 1.835822 -22.658413 11.915518 -0.384302 -31.996578 0.569336 -119.455528 7.613779 -56.126595 25.928363 197.777703 -137.985954 227.868143 38.562401 14.473036 1.584192 35.472813 7.081316 113.009271 -129.820886 -138.169905 -143.713887 -249.028724 6.586965 66.140314 66.790863 -37.414895 47.584586 -109.857391 37.191828 52.802198 47.121711 11.155199 18.920988 -54.117549 -48.315232 -44.741670 130.739875 10.206468 -62.940808 -77.899837 18.046265 -43.331219 
-29.660709 28.700115 40.353699 57.706807 23.673410 -0.233624 -7.268983 17.749343 8.550249 0.534910 -9.962631 -1.178201 1.422985 28.733154 5.146365 2.197070 4.231906 1.820016 -22.710562 12.124751 -0.974221 -29.981378 0.564744 -120.986761 11.786528 -56.081727 28.210845 199.475839 -137.791553 229.858433 39.058153 14.420911 0.831403 33.769541 7.765052 115.322239 -130.394076 -137.208624 -142.812630 -250.597646 6.795444 67.160430 62.731162 -37.753673 43.345914 -104.688393 37.865432 49.820479 46.359841 11.574895 17.786308 -50.523323 -47.483274 -41.157047 129.474104 10.985137 -61.545653 -77.311683 17.990396 -43.261486 
-29.446201 28.598015 40.707191 57.125168 22.618571 -0.175148 -6.767042 17.213878 8.409898 0.341042 -9.636856 -1.126419 1.532876 29.231126 5.245501 2.233455 4.293138 1.932925 -22.134294 11.767672 -2.491078 -28.440214 0.790962 -121.480857 13.061556 -57.079273 27.297114 203.309282 -137.755135 231.899348 39.752343 14.011744 2.028028 31.836731 7.735145 115.971435 -130.952184 -136.495320 -141.905964 -252.197440 7.033783 67.900065 58.624921 -37.788910 39.186424 -96.445768 40.578280 45.303921 42.518716 11.845612 16.156462 -46.880912 -46.488409 -37.553490 127.877261 12.012109 -60.015602 -76.544612 18.002427 -43.062297 
-29.217604 28.491413 41.054993 56.388454 21.506297 -0.083897 -6.830345 16.690189 8.360773 0.626542 -9.613160 -1.085149 1.821594 29.884383 5.497556 2.325303 4.276901 1.891439 -22.231678 11.477005 -2.216393 -27.075638 0.957133 -123.424496 15.208982 -57.026021 28.392137 205.912541 -137.995079 233.853711 40.209819 14.464934 2.021599 30.214561 7.717588 118.061500 -131.426432 -136.045866 -141.140313 -253.922555 7.292535 68.697353 54.305861 -37.576118 34.849647 -91.815774 40.119630 42.688300 42.849646 12.285542 15.126219 -43.152377 -45.333222 -34.029396 126.164932 12.989032 -58.412570 -75.773900 18.128398 -42.787385 
-28.981604 28.374914 41.405289 55.544051 20.392689 0.075073 -6.253199 16.190842 8.224004 0.600394 -9.324950 -1.050544 2.132691 30.351728 5.441782 2.291523 4.250530 2.111458 -22.196066 11.036714 -3.280010 -25.532116 0.927299 -124.407921 17.619940 -57.133132 29.098675 208.697660 -138.313735 235.894844 39.075775 15.947962 3.511686 29.625437 6.270120 119.798253 -132.892737 -135.335240 -140.826958 -254.987901 7.608228 69.388384 49.584697 -37.180784 30.218669 -86.629072 39.420799 39.852689 43.229910 12.948454 13.507009 -39.774589 -43.879157 -30.927500 124.581489 13.977104 -56.850291 -75.015633 18.165547 -42.355919 
-28.736401 28.252811 41.750790 54.695386 19.248991 0.229481 -5.931167 15.771955 8.129254 0.614527 -9.243200 -1.027576 2.667129 30.804648 5.339224 2.025634 4.206398 2.772875 -22.166252 10.987212 -3.087796 -23.912368 0.629322 -126.392910 18.973507 -57.463925 29.285621 211.382621 -138.401011 237.467099 39.667929 16.087862 3.326588 27.835295 6.127179 121.805864 -133.477783 -134.785437 -140.235805 -256.295035 7.755187 70.114883 44.845188 -36.382386 25.690898 -81.464657 38.600927 37.129274 43.343711 13.395194 12.870335 -36.542120 -42.281774 -27.990703 122.867235 14.945647 -55.189896 -74.211406 18.216495 -41.895585 
-28.478506 28.117815 42.107491 53.781784 18.040153 0.293493 -5.114286 15.426300 8.132491 0.422563 -8.920257 -1.007593 2.802343 31.077016 5.379295 2.030646 4.181606 3.053498 -21.437522 10.575405 -4.319025 -23.539876 0.174366 -127.519919 20.745890 -57.121825 29.806409 214.106596 -138.976919 239.531346 39.476219 14.813948 4.307507 26.718192 6.597912 122.322158 -134.113756 -134.528499 -139.573823 -257.423737 7.956236 70.386370 40.045846 -35.130480 21.227050 -76.118312 37.562741 34.484409 43.589205 13.878834 11.999384 -33.050589 -40.548545 -24.938359 120.734822 16.063321 -53.427034 -73.313919 18.294464 -41.144336 
-28.209999 27.973415 42.461189 52.766947 16.771379 0.371902 -4.442428 15.151677 8.178499 0.474365 -8.798144 -0.974137 3.180392 31.549491 5.193371 1.899327 4.217712 3.057971 -21.682070 10.869213 -4.019658 -22.535683 -0.952509 -130.174567 21.656472 -56.922195 30.411578 216.979769 -139.430812 241.411014 39.705399 14.896098 3.526287 24.887263 6.702349 124.996792 -135.409334 -134.026657 -139.479785 -258.067742 8.073930 70.507353 35.548201 -33.391039 17.073736 -70.815251 36.336753 31.813501 43.604389 14.358618 11.663500 -29.935968 -38.625526 -22.268858 118.784913 17.086237 -51.727420 -72.394971 18.467546 -40.340986 
-27.947100 27.818417 42.819195 51.933606 15.551968 0.384240 -3.285762 14.907880 8.281141 0.039719 -8.362168 -0.962426 3.792001 31.765420 4.431840 1.586182 4.076291 3.410869 -20.520088 10.708256 -6.098790 -22.366925 -1.490118 -130.495600 21.168226 -57.150242 28.336817 220.595289 -139.699922 243.084739 37.654836 12.576746 4.812367 25.455079 7.994889 125.503401 -137.329040 -133.601710 -139.831130 -256.332819 8.021728 67.430401 31.009991 -31.381410 13.236724 -65.454843 34.876793 29.221660 43.414287 14.951784 11.827465 -27.066214 -36.608339 -19.772523 116.485543 18.218628 -49.886827 -71.300734 18.546714 -39.435948 
-27.682804 27.665014 43.175690 51.305232 14.640784 0.432955 -2.927543 14.208802 8.088027 -0.014909 -8.157847 -0.932406 4.114934 32.162862 4.497779 1.516355 3.967930 3.654193 -19.604289 10.608157 -6.905357 -21.956417 -1.831538 -131.318078 21.962767 -56.749200 27.473661 222.807874 -140.063739 244.588965 37.717121 12.607317 4.462140 24.067683 7.618230 127.875129 -139.087513 -133.021896 -140.483672 -254.022931 7.519048 63.868634 26.699817 -29.416317 10.044752 -60.355738 33.420242 26.821653 43.326130 15.705048 11.484459 -24.914887 -34.759051 -17.863270 114.299876 19.223028 -48.002054 -70.173145 18.860761 -38.529620 
-27.422407 27.504112 43.531891 50.642547 13.741192 0.475665 -1.910987 13.588363 7.888606 -0.479744 -7.731895 -0.937547 4.328724 32.465682 4.556269 1.768265 3.951999 3.390254 -17.903628 9.989441 -9.230458 -22.192470 -2.160475 -130.753235 23.341470 -56.112712 26.557341 224.700164 -140.341058 246.365360 38.196870 11.406428 5.699355 22.001412 8.235316 128.318095 -141.406035 -133.308217 -141.079156 -253.362507 3.940267 72.534772 22.792174 -27.266897 7.303158 -55.498371 31.860876 24.587532 43.205338 16.630891 10.887984 -22.763634 -32.848367 -16.059518 111.840243 20.290627 -45.995382 -68.890695 19.363031 -37.454609 
-27.172207 27.347919 43.877693 50.051473 12.808234 0.503926 -1.812292 13.039565 7.835909 -0.471495 -7.453675 -0.987191 4.368535 32.441216 4.486694 0.943591 3.308124 5.199589 -16.643190 9.282626 -10.503012 -22.241683 -2.437187 -130.894333 24.311348 -55.266920 25.686820 226.303415 -140.798558 248.232406 38.793139 11.192951 6.384415 20.241407 7.986181 129.647864 -144.517719 -133.118939 -142.469044 -244.036594 11.047417 82.039854 19.411575 -25.003965 5.115201 -51.132866 30.324848 22.523266 43.026801 17.826211 10.130002 -20.898840 -30.956398 -14.480428 109.198244 21.320224 -44.027949 -67.536029 20.017486 -36.157235 
-26.935900 27.187115 44.218193 49.498514 11.992117 0.610672 -1.784614 12.361533 7.491504 -0.443570 -7.220983 -0.953996 6.281522 33.047669 2.896269 -0.243005 2.964482 6.900109 -16.150932 8.401831 -11.185103 -21.527764 -2.454287 -131.359824 26.137283 -54.227112 25.713570 226.839407 -141.243640 249.185518 39.770648 11.339835 7.237040 17.837536 7.405091 130.711693 -147.106852 -133.023740 -143.351696 -243.539684 10.967301 81.783278 16.592626 -22.899244 3.284534 -47.429407 28.843824 20.887775 42.910138 19.030138 9.143217 -19.083386 -29.077638 -13.163374 106.474781 22.245052 -41.963326 -66.107407 20.650889 -35.207508 
-26.703501 27.026014 44.550392 49.032012 11.286307 0.667066 -1.973475 11.558097 7.087754 -0.328781 -6.996914 -0.918370 7.931203 33.723939 1.739922 -1.041193 2.827053 8.268863 -16.910852 8.753804 -10.665783 -19.149270 -3.331500 -133.285295 29.692939 -52.652736 27.219255 226.425538 -141.827498 250.411401 38.918947 11.073549 8.410628 17.219378 7.070139 131.684449 -150.431105 -132.976407 -144.775108 -246.228374 12.150366 85.910666 13.883729 -20.837184 1.730550 -39.489698 28.349170 17.856831 39.056097 20.309320 7.176621 -17.522767 -27.315166 -11.995037 104.153049 22.853506 -39.967917 -64.973459 21.500566 -34.654601 
-26.481604 26.857813 44.876293 48.445371 10.222843 0.606787 -1.987429 11.355869 7.138210 -0.266064 -6.836030 -0.893697 9.262221 34.102168 0.518309 -1.308476 2.961741 8.441881 -17.447657 8.894537 -10.488130 -17.300205 -4.172947 -135.268031 31.887906 -51.300547 27.814028 226.211999 -142.244727 250.411592 39.284209 10.891942 9.156207 15.376298 6.443732 132.549315 -152.871928 -133.297371 -145.711800 -249.385370 13.417831 88.878690 11.630527 -18.405890 0.428068 -35.868735 26.826079 16.594812 38.298547 21.577194 6.480620 -15.723165 -25.240576 -10.636637 101.563328 23.395063 -37.891004 -63.657732 22.393788 -34.050023 
